<svg t="1634021519484" class="icon" viewBox="0 0 1024 1024" version="1.1"
  xmlns="http://www.w3.org/2000/svg" p-id="1482" width="200" height="200">
  <path d="M85.333333 682.666667h853.333334v85.333333c0 47.36-37.973333 85.333333-85.333334 85.333333H170.666667c-47.36 0-85.333333-37.973333-85.333334-85.333333v-85.333333M256 170.666667h512c94.72 0 170.666667 75.946667 170.666667 170.666666v85.333334H85.333333V341.333333c0-94.72 75.946667-170.666667 170.666667-170.666666m-85.333333 298.666666h469.333333l85.333333 85.333334 85.333334-85.333334h42.666666c47.36 0 85.333333 37.973333 85.333334 85.333334 0 47.36-37.973333 85.333333-85.333334 85.333333H170.666667c-47.36 0-85.333333-37.973333-85.333334-85.333333 0-47.36 37.973333-85.333333 85.333334-85.333334z" fill="#2c2c2c" p-id="1483"></path>
</svg>